<svg width="56" height="53" viewBox="0 0 56 53" fill="none" xmlns="http://www.w3.org/2000/svg">
<path d="M8.33699 52.6201L54.0085 46.1645L49.79 21.7775L7.22092 26.2517L8.33699 52.6201Z" fill="#25231E"/>
<path d="M46.4989 0.672081L2.40919 16.7194C1.7684 16.9526 1.43801 17.6612 1.67124 18.302L4.20503 25.2635C4.43826 25.9043 5.14679 26.2347 5.78758 26.0015L49.8773 9.95412C50.5181 9.72089 50.8484 9.01236 50.6152 8.37157L48.0814 1.41004C47.8482 0.769247 47.1397 0.438853 46.4989 0.672081Z" fill="#25231E"/>
<path d="M7.43697 14.8895L16.2299 22.2008L20.8709 20.5116L12.078 13.2003L7.43697 14.8895Z" fill="#FFD23F"/>
<path d="M19.813 10.3849L28.6059 17.6962L33.2469 16.0071L24.454 8.69574L19.813 10.3849Z" fill="#FFD23F"/>
<path d="M32.1891 5.88045L40.982 13.1918L45.623 11.5026L36.8301 4.19126L32.1891 5.88045Z" fill="#FFD23F"/>
</svg>
