<svg width="230" height="65" viewBox="0 0 230 65" fill="none" xmlns="http://www.w3.org/2000/svg">
<path d="M10.1282 63.9257L65.6124 56.083L60.4875 26.4564L8.77233 31.8919L10.1282 63.9257Z" fill="#25231E"/>
<g opacity="0.9">
<path d="M13.5866 39.43L55.3566 35.0398" stroke="#FFD23F" stroke-width="1.2" stroke-linecap="round"/>
<path d="M14.2138 45.3971L42.0604 42.4703" stroke="#FFD23F" stroke-width="1.2" stroke-linecap="round"/>
</g>
<g opacity="0.9">
<path d="M26.6707 49.1154L14.7365 50.3697C14.1872 50.4274 13.7887 50.9195 13.8465 51.4688L14.6304 58.9277C14.6882 59.4769 15.1802 59.8754 15.7295 59.8177L27.6637 58.5633C28.213 58.5056 28.6115 58.0135 28.5537 57.4643L27.7698 50.0054C27.712 49.4561 27.22 49.0576 26.6707 49.1154Z" stroke="#FFD23F" stroke-width="1.2"/>
<path d="M42.5831 47.4429L30.6488 48.6973C30.0995 48.755 29.7011 49.247 29.7588 49.7963L30.5428 57.2552C30.6005 57.8045 31.0926 58.2029 31.6418 58.1452L43.5761 56.8909C44.1253 56.8331 44.5238 56.3411 44.4661 55.7918L43.6821 48.3329C43.6244 47.7836 43.1323 47.3852 42.5831 47.4429Z" stroke="#FFD23F" stroke-width="1.2"/>
<path d="M57.5009 45.875L46.5612 47.0248C46.0119 47.0825 45.6134 47.5746 45.6712 48.1238L46.4551 55.5828C46.5129 56.132 47.0049 56.5305 47.5542 56.4728L58.4939 55.3229C59.0432 55.2652 59.4416 54.7732 59.3839 54.2239L58.5999 46.765C58.5422 46.2157 58.0502 45.8173 57.5009 45.875Z" stroke="#FFD23F" stroke-width="1.2"/>
</g>
<path d="M56.4893 0.816482L2.9268 20.3116C2.14834 20.595 1.74696 21.4557 2.0303 22.2342L5.10848 30.6914C5.39182 31.4699 6.25258 31.8713 7.03105 31.5879L60.5935 12.0928C61.372 11.8095 61.7734 10.9487 61.49 10.1702L58.4119 1.71299C58.1285 0.934524 57.2677 0.533144 56.4893 0.816482Z" fill="#25231E"/>
<path d="M9.03481 18.0885L19.7169 26.9707L25.3551 24.9186L14.673 16.0364L9.03481 18.0885Z" fill="#FFD23F"/>
<path d="M24.0699 12.6162L34.752 21.4983L40.3901 19.4462L29.708 10.5641L24.0699 12.6162Z" fill="#FFD23F"/>
<path d="M39.105 7.14386L49.7871 16.026L55.4252 13.9739L44.7431 5.09174L39.105 7.14386Z" fill="#FFD23F"/>
<path d="M96.768 43.472C98.24 43.472 99.576 43.256 100.776 42.824C101.992 42.392 102.896 41.968 103.488 41.552L106.56 47.648C105.808 48.288 104.52 48.936 102.696 49.592C100.888 50.248 98.736 50.576 96.24 50.576C93.904 50.576 91.712 50.168 89.664 49.352C87.616 48.536 85.808 47.392 84.24 45.92C82.688 44.432 81.464 42.696 80.568 40.712C79.688 38.712 79.248 36.544 79.248 34.208C79.248 31.872 79.688 29.704 80.568 27.704C81.448 25.688 82.664 23.936 84.216 22.448C85.784 20.96 87.592 19.808 89.64 18.992C91.704 18.16 93.904 17.744 96.24 17.744C98.736 17.744 100.888 18.072 102.696 18.728C104.52 19.384 105.808 20.032 106.56 20.672L103.488 26.768C102.896 26.336 101.992 25.912 100.776 25.496C99.576 25.064 98.24 24.848 96.768 24.848C95.136 24.848 93.712 25.104 92.496 25.616C91.28 26.112 90.264 26.8 89.448 27.68C88.632 28.56 88.024 29.552 87.624 30.656C87.224 31.76 87.024 32.92 87.024 34.136C87.024 35.368 87.224 36.544 87.624 37.664C88.024 38.768 88.632 39.76 89.448 40.64C90.264 41.52 91.28 42.216 92.496 42.728C93.712 43.224 95.136 43.472 96.768 43.472ZM116.33 50H109.01V16.976H116.33V50ZM134.402 50V46.808C134.258 47.128 133.89 47.592 133.298 48.2C132.722 48.808 131.954 49.36 130.994 49.856C130.034 50.336 128.914 50.576 127.634 50.576C125.714 50.576 124.034 50.112 122.594 49.184C121.154 48.24 120.034 46.984 119.233 45.416C118.433 43.832 118.033 42.08 118.033 40.16C118.033 38.24 118.433 36.496 119.233 34.928C120.034 33.344 121.154 32.08 122.594 31.136C124.034 30.192 125.714 29.72 127.634 29.72C128.866 29.72 129.946 29.92 130.873 30.32C131.802 30.704 132.554 31.168 133.13 31.712C133.706 32.24 134.106 32.728 134.33 33.176V30.296H141.578V50H134.402ZM125.186 40.16C125.186 41.056 125.394 41.864 125.809 42.584C126.226 43.288 126.778 43.84 127.466 44.24C128.17 44.64 128.946 44.84 129.794 44.84C130.674 44.84 131.45 44.64 132.122 44.24C132.794 43.84 133.322 43.288 133.706 42.584C134.106 41.864 134.306 41.056 134.306 40.16C134.306 39.264 134.106 38.464 133.706 37.76C133.322 37.04 132.794 36.48 132.122 36.08C131.45 35.664 130.674 35.456 129.794 35.456C128.946 35.456 128.17 35.664 127.466 36.08C126.778 36.48 126.226 37.04 125.809 37.76C125.394 38.464 125.186 39.264 125.186 40.16ZM157.727 30.296H165.983L156.695 39.704L166.943 50H158.495L150.887 42.08V50H143.591V16.976H150.887V37.16L157.727 30.296Z" fill="#E5E5EA"/>
<path d="M185.56 24.608H178V18.32H200.272V24.608H192.736V50H185.56V24.608ZM217.163 50H209.051L197.771 18.32H205.859L213.107 40.856L220.355 18.32H228.443L217.163 50Z" fill="#FFD23F"/>
</svg>
