<svg width="67" height="65" viewBox="0 0 67 65" fill="none" xmlns="http://www.w3.org/2000/svg">
<path d="M10.1282 63.9257L65.6124 56.083L60.4875 26.4564L8.77234 31.8919L10.1282 63.9257Z" fill="#25231E"/>
<g opacity="0.9">
<path d="M13.5866 39.43L55.3566 35.0398" stroke="#FFD23F" stroke-width="1.2" stroke-linecap="round"/>
<path d="M14.2138 45.3971L42.0604 42.4703" stroke="#FFD23F" stroke-width="1.2" stroke-linecap="round"/>
</g>
<g opacity="0.9">
<path d="M26.6707 49.1154L14.7365 50.3697C14.1872 50.4274 13.7887 50.9195 13.8465 51.4688L14.6304 58.9277C14.6882 59.4769 15.1802 59.8754 15.7295 59.8177L27.6637 58.5633C28.213 58.5056 28.6115 58.0135 28.5537 57.4643L27.7698 50.0054C27.712 49.4561 27.22 49.0576 26.6707 49.1154Z" stroke="#FFD23F" stroke-width="1.2"/>
<path d="M42.5831 47.4429L30.6488 48.6973C30.0996 48.755 29.7011 49.247 29.7588 49.7963L30.5428 57.2552C30.6005 57.8045 31.0926 58.2029 31.6418 58.1452L43.5761 56.8909C44.1254 56.8331 44.5238 56.3411 44.4661 55.7918L43.6821 48.3329C43.6244 47.7836 43.1323 47.3852 42.5831 47.4429Z" stroke="#FFD23F" stroke-width="1.2"/>
<path d="M57.5009 45.875L46.5612 47.0248C46.0119 47.0825 45.6134 47.5746 45.6712 48.1238L46.4551 55.5828C46.5129 56.132 47.0049 56.5305 47.5542 56.4728L58.4939 55.3229C59.0432 55.2652 59.4417 54.7732 59.3839 54.2239L58.6 46.765C58.5422 46.2157 58.0502 45.8173 57.5009 45.875Z" stroke="#FFD23F" stroke-width="1.2"/>
</g>
<path d="M56.4893 0.816491L2.92681 20.3116C2.14835 20.595 1.74696 21.4557 2.0303 22.2342L5.10848 30.6914C5.39182 31.4699 6.25259 31.8713 7.03105 31.588L60.5935 12.0928C61.372 11.8095 61.7734 10.9487 61.49 10.1702L58.4119 1.713C58.1285 0.934533 57.2678 0.533153 56.4893 0.816491Z" fill="#25231E"/>
<path d="M9.03482 18.0885L19.7169 26.9707L25.3551 24.9186L14.673 16.0364L9.03482 18.0885Z" fill="#FFD23F"/>
<path d="M24.0699 12.6162L34.752 21.4984L40.3901 19.4462L29.708 10.5641L24.0699 12.6162Z" fill="#FFD23F"/>
<path d="M39.105 7.14387L49.7871 16.026L55.4252 13.9739L44.7431 5.09175L39.105 7.14387Z" fill="#FFD23F"/>
</svg>
